<?xml version="1.0" standalone="no"?>
<!DOCTYPE svg PUBLIC "-//W3C//DTD SVG 20010904//EN"
 "http://www.w3.org/TR/2001/REC-SVG-20010904/DTD/svg10.dtd">
<svg version="1.0" xmlns="http://www.w3.org/2000/svg"
 width="256.000000pt" height="256.000000pt" viewBox="0 0 256.000000 256.000000"
 preserveAspectRatio="xMidYMid meet">

<g transform="translate(0.000000,256.000000) scale(0.100000,-0.100000)"
fill="#000000" stroke="none">
<path d="M1165 2315 c-315 -58 -590 -254 -744 -529 -57 -102 -73 -114 -132
-102 -19 4 -42 0 -62 -11 -19 -10 -58 -16 -97 -17 -61 -1 -66 1 -78 27 -18 37
-32 34 -32 -8 0 -19 -4 -35 -10 -35 -24 0 -7 -19 27 -31 25 -8 77 -10 165 -6
146 6 139 11 112 -83 -25 -88 -30 -326 -9 -435 78 -416 376 -727 800 -836 76
-20 114 -23 240 -23 167 1 268 21 420 85 240 100 467 337 565 591 52 134 65
215 64 388 -1 133 -5 169 -27 251 -45 169 -133 330 -248 454 -134 143 -316
252 -504 301 -127 33 -328 41 -450 19z m435 -180 c130 -42 290 -129 290 -157
0 -13 -261 -278 -274 -278 -4 0 -5 8 0 18 4 9 6 51 5 92 -3 92 -34 156 -95
197 -89 60 -123 64 -266 31 -115 -27 -121 -33 -130 -115 -3 -37 -18 -95 -32
-128 -22 -51 -31 -61 -57 -66 -18 -4 -40 -14 -51 -24 -16 -14 -38 -17 -141
-16 -71 1 -128 6 -136 13 -7 6 -42 9 -83 6 -38 -2 -70 -1 -70 3 0 20 93 143
153 202 123 121 243 189 412 233 80 22 107 24 240 21 130 -4 161 -8 235 -32z
m463 -327 c38 -54 77 -120 77 -130 0 -2 -74 -3 -165 -3 -91 0 -165 2 -165 5 0
11 186 190 197 190 7 0 32 -28 56 -62z m-463 -110 c0 -7 -4 -19 -9 -27 -11
-17 -23 1 -15 23 7 19 24 21 24 4z m-35 -58 c-3 -5 -10 -10 -16 -10 -5 0 -9 5
-9 10 0 6 7 10 16 10 8 0 12 -4 9 -10z m598 -17 c-7 -2 -19 -2 -25 0 -7 3 -2
5 12 5 14 0 19 -2 13 -5z m-650 -13 c21 0 20 -1 -5 -27 -24 -24 -30 -25 -54
-14 -26 11 -26 12 -8 32 10 11 24 17 32 14 7 -3 23 -5 35 -5z m-989 -26 c9 -3
16 -14 16 -25 0 -22 21 -34 74 -42 43 -7 86 -31 86 -50 0 -7 -23 -36 -51 -64
l-50 -51 23 -36 c13 -20 28 -36 33 -36 18 0 116 103 136 143 25 48 38 52 91
35 56 -19 66 -47 82 -248 l13 -155 -161 -162 c-88 -90 -166 -163 -173 -163
-16 0 -97 132 -129 211 -74 180 -83 435 -23 616 12 36 11 36 33 27z m1670 -26
c16 -26 5 -28 -59 -12 -86 22 -93 36 -16 32 47 -2 67 -7 75 -20z m30 -113 c5
-22 9 -98 9 -170 1 -147 -21 -256 -72 -369 -31 -68 -118 -201 -151 -231 -19
-17 -20 -17 -39 6 -15 19 -21 21 -34 11 -13 -11 -25 -3 -81 49 -56 52 -73 62
-112 67 -36 4 -47 1 -59 -14 -16 -22 -14 -24 -48 46 -15 30 -50 86 -77 123
l-51 68 -44 -6 c-31 -5 -57 -2 -88 10 -25 9 -54 14 -66 10 -26 -8 -91 4 -91
18 0 6 35 8 103 5 144 -8 165 -3 175 36 7 26 14 32 41 34 19 2 38 -1 44 -7 6
-6 15 -11 19 -11 12 0 -64 66 -85 73 -27 10 -67 -34 -67 -73 0 -22 -4 -30 -12
-26 -7 3 -21 9 -31 12 -11 4 -16 13 -12 24 3 9 -1 23 -10 30 -8 7 -15 27 -15
46 0 46 62 107 99 99 14 -3 41 -1 60 5 23 6 40 6 54 -2 16 -8 23 -7 33 7 11
15 16 16 29 5 22 -18 31 -4 15 25 -21 40 -3 42 36 4 33 -31 36 -32 29 -10 -6
20 -4 23 9 18 14 -5 15 -3 6 13 -15 27 1 32 56 19 34 -9 49 -9 52 -1 2 6 17 8
38 5 19 -3 34 -1 34 4 0 6 22 8 53 6 l52 -4 -25 20 c-28 23 -26 24 53 21 63
-2 73 6 27 21 -54 19 -33 30 52 27 l82 -3 10 -40z m-1142 -554 c50 -29 145
-46 165 -29 14 11 21 6 57 -33 22 -26 59 -57 81 -71 22 -14 70 -44 107 -67 62
-39 75 -44 200 -61 73 -11 145 -20 159 -20 15 0 33 -7 40 -16 12 -14 9 -20
-21 -46 -48 -40 -221 -123 -300 -143 -93 -23 -263 -30 -355 -16 -150 25 -335
106 -423 187 l-47 43 145 145 c80 80 148 146 152 146 4 0 22 -9 40 -19z"/>
<path d="M1628 1113 c7 -3 16 -2 19 1 4 3 -2 6 -13 5 -11 0 -14 -3 -6 -6z"/>
<path d="M1070 855 c0 -14 70 -157 89 -181 42 -53 69 -67 129 -65 31 1 87 11
126 23 l69 21 -59 30 c-32 16 -73 40 -90 53 -17 13 -39 24 -49 24 -9 0 -32 16
-51 36 -25 29 -44 39 -81 45 -26 4 -56 10 -65 14 -10 4 -18 4 -18 0z"/>
<path d="M1255 810 c3 -5 11 -10 16 -10 6 0 7 5 4 10 -3 6 -11 10 -16 10 -6 0
-7 -4 -4 -10z"/>
</g>
</svg>
