<?xml version="1.0" standalone="no"?>
<!DOCTYPE svg PUBLIC "-//W3C//DTD SVG 20010904//EN"
 "http://www.w3.org/TR/2001/REC-SVG-20010904/DTD/svg10.dtd">
<svg version="1.0" xmlns="http://www.w3.org/2000/svg"
 width="499.000000pt" height="499.000000pt" viewBox="0 0 499.000000 499.000000"
 preserveAspectRatio="xMidYMid meet">

<g transform="translate(0.000000,499.000000) scale(0.100000,-0.100000)"
fill="#000000" stroke="none">
<path d="M2420 4291 c-207 -68 -821 -549 -1424 -1115 -232 -217 -316 -304
-316 -326 0 -49 112 -200 149 -200 9 0 33 14 54 31 l37 30 0 -958 c0 -527 4
-964 8 -971 7 -10 328 -12 1573 -10 l1564 3 3 968 2 968 37 -30 c21 -17 45
-31 54 -31 37 0 149 151 149 200 0 19 -61 84 -269 283 l-81 79 -2 271 c-1 150
-2 295 -2 322 l-1 50 36 3 c58 5 73 30 74 119 l0 77 -40 9 c-43 10 -503 1
-570 -11 l-40 -7 -3 -66 c-4 -84 8 -117 45 -121 l28 -3 6 -110 c4 -60 5 -112
4 -113 -2 -2 -57 41 -122 95 -65 55 -141 117 -169 139 -28 21 -100 77 -160
123 -155 120 -307 222 -394 266 -59 30 -89 39 -140 41 -36 2 -76 0 -90 -5z
m85 -31 c11 9 14 5 13 -19 l-1 -30 -19 24 c-10 13 -18 27 -17 32 0 4 3 2 6 -5
4 -10 8 -10 18 -2z m86 -48 c11 -29 -5 -28 -20 1 -6 12 -10 15 -7 6 2 -9 -1
-22 -7 -29 -9 -10 -9 -11 1 -6 6 4 12 2 12 -3 0 -14 -13 -14 -28 1 -8 8 -9 15
-1 25 7 7 8 13 3 13 -5 0 -2 5 6 10 20 13 32 8 41 -18z m-238 -42 c16 -26 16
-30 3 -30 -9 0 -16 9 -16 21 0 11 -4 17 -10 14 -5 -3 -10 1 -10 9 0 25 14 19
33 -14z m67 10 c0 -5 -2 -10 -4 -10 -3 0 -8 5 -11 10 -3 6 -1 10 4 10 6 0 11
-4 11 -10z m80 -6 c0 -9 5 -12 12 -8 7 4 8 3 4 -4 -11 -18 -23 -14 -29 8 -3
11 -1 20 4 20 5 0 9 -7 9 -16z m-230 -30 c0 -8 -4 -12 -10 -9 -5 3 -10 10 -10
16 0 5 5 9 10 9 6 0 10 -7 10 -16z m320 7 c0 -6 -4 -13 -10 -16 -5 -3 -10 1
-10 9 0 9 5 16 10 16 6 0 10 -4 10 -9z m43 -15 c4 -10 1 -13 -9 -9 -15 6 -19
23 -5 23 5 0 11 -7 14 -14z m127 -16 c-12 -22 -25 -26 -35 -10 -3 5 0 7 8 4 8
-3 17 2 20 10 4 9 9 16 12 16 3 0 1 -9 -5 -20z m-583 -7 c-4 -3 -1 -13 6 -22
11 -14 10 -14 -5 -2 -21 15 -23 31 -6 31 6 0 8 -3 5 -7z m623 -15 c0 -10 -2
-18 -5 -18 -2 0 -9 8 -14 18 -8 14 -6 19 5 19 7 0 14 -9 14 -19z m-80 -17 c0
-4 -6 -8 -14 -8 -8 0 -12 6 -9 14 5 13 23 9 23 -6z m-469 -3 c8 -7 12 -12 10
-11 -2 2 -11 -3 -19 -10 -13 -10 -14 -9 -8 2 5 8 3 17 -5 22 -8 5 -9 9 -3 9 5
0 17 -6 25 -12z m-127 -28 c-6 -6 -10 -2 -11 12 -2 16 1 18 10 9 7 -7 8 -14 1
-21z m762 11 c-4 -5 0 -12 6 -14 7 -3 0 -6 -17 -6 -29 0 -29 0 -11 14 23 17
30 19 22 6z m-49 -20 c0 -11 -5 -18 -9 -15 -4 3 -5 11 -1 19 7 21 12 19 10 -4z
m963 -10 c0 -15 -32 -23 -44 -11 -8 8 -6 9 5 5 10 -4 20 -2 24 4 8 13 15 14
15 2z m122 -13 c-7 -7 -12 -8 -12 -2 0 6 3 14 7 17 3 4 9 5 12 2 2 -3 -1 -11
-7 -17z m-222 -2 c0 -3 -4 -8 -10 -11 -5 -3 -10 -1 -10 4 0 6 5 11 10 11 6 0
10 -2 10 -4z m330 -11 c20 -24 6 -28 -15 -5 -10 11 -13 20 -8 20 6 0 16 -7 23
-15z m-1215 -5 c3 -5 1 -10 -4 -10 -6 0 -11 5 -11 10 0 6 2 10 4 10 3 0 8 -4
11 -10z m1130 0 c3 -5 1 -10 -4 -10 -6 0 -11 5 -11 10 0 6 2 10 4 10 3 0 8 -4
11 -10z m-110 -10 c3 -5 -1 -10 -10 -10 -9 0 -13 5 -10 10 3 6 8 10 10 10 2 0
7 -4 10 -10z m162 4 c-3 -3 -12 -4 -19 -1 -8 3 -5 6 6 6 11 1 17 -2 13 -5z
m-1686 -27 c-10 -9 -11 -8 -5 6 3 10 9 15 12 12 3 -3 0 -11 -7 -18z m1560 0
c-10 -9 -11 -8 -5 6 3 10 9 15 12 12 3 -3 0 -11 -7 -18z m-1256 -46 c79 -50
394 -304 746 -602 25 -21 63 -53 86 -71 22 -18 96 -80 163 -138 123 -105 152
-130 334 -288 l96 -84 0 -969 0 -969 -560 0 -560 0 2 952 3 953 -430 0 -430 0
3 -952 2 -953 -560 0 -560 0 0 969 0 969 107 93 c59 52 157 136 218 188 60 52
137 118 170 146 33 29 159 134 280 234 121 100 258 214 304 254 115 98 317
254 355 275 83 45 108 51 151 34 22 -9 58 -27 80 -41z m323 34 c-3 -3 -9 2
-12 12 -6 14 -5 15 5 6 7 -7 10 -15 7 -18z m-938 0 c0 -8 -4 -15 -10 -15 -5 0
-7 7 -4 15 4 8 8 15 10 15 2 0 4 -7 4 -15z m1560 0 c0 -8 -4 -15 -10 -15 -5 0
-7 7 -4 15 4 8 8 15 10 15 2 0 4 -7 4 -15z m220 5 c-8 -5 -19 -10 -25 -10 -5
0 -3 5 5 10 8 5 20 10 25 10 6 0 3 -5 -5 -10z m-903 -45 c-14 -30 -27 -33 -20
-5 3 11 10 20 15 20 5 0 6 5 2 12 -4 6 -3 8 4 5 7 -5 7 -15 -1 -32z m-737 15
c0 -5 -4 -10 -10 -10 -5 0 -10 5 -10 10 0 6 5 10 10 10 6 0 10 -4 10 -10z
m905 -9 c-3 -6 -11 -11 -16 -11 -5 0 -4 6 3 14 14 16 24 13 13 -3z m655 9 c0
-5 -2 -10 -4 -10 -3 0 -8 5 -11 10 -3 6 -1 10 4 10 6 0 11 -4 11 -10z m-590
-29 c0 -17 -18 -21 -24 -6 -3 9 0 15 9 15 8 0 15 -4 15 -9z m-1040 -5 c0 -2
-8 -10 -17 -17 -16 -13 -17 -12 -4 4 13 16 21 21 21 13z m816 -22 c-21 -20
-28 -17 -14 5 7 11 16 17 20 15 5 -3 2 -12 -6 -20z m284 -18 c0 -2 -8 -10 -17
-17 -16 -13 -17 -12 -4 4 13 16 21 21 21 13z m-1325 -17 c11 -16 1 -19 -13 -3
-7 8 -8 14 -3 14 5 0 13 -5 16 -11z m2085 -290 c0 -326 3 -309 -46 -263 -13
12 -267 240 -323 291 l-36 31 -3 119 -4 118 206 2 206 3 0 -301z m-987 284
c-7 -2 -19 -2 -25 0 -7 3 -2 5 12 5 14 0 19 -2 13 -5z m-853 -43 c0 -5 -5 -10
-11 -10 -5 0 -7 5 -4 10 3 6 8 10 11 10 2 0 4 -4 4 -10z m-67 -15 c-3 -9 -8
-14 -10 -11 -3 3 -2 9 2 15 9 16 15 13 8 -4z m-299 -14 c3 -5 -1 -11 -9 -14
-9 -4 -12 -1 -8 9 6 16 10 17 17 5z m76 -6 c0 -8 -4 -15 -10 -15 -5 0 -7 7 -4
15 4 8 8 15 10 15 2 0 4 -7 4 -15z m1490 1 c0 -2 -7 -7 -16 -10 -8 -3 -12 -2
-9 4 6 10 25 14 25 6z m-1560 -118 c0 -4 -4 -8 -9 -8 -6 0 -12 4 -15 8 -3 5 1
9 9 9 8 0 15 -4 15 -9z m-170 -8 c0 -5 -10 -15 -22 -21 l-23 -12 20 21 c23 24
25 25 25 12z m235 -72 c6 -4 2 -8 -7 -8 -10 0 -18 7 -18 17 0 9 3 12 8 7 4 -5
12 -12 17 -16z m1554 -7 c-15 -5 -22 6 -14 19 6 9 10 9 16 -1 5 -8 4 -15 -2
-18z m-1767 -13 c-7 -7 -12 -8 -12 -2 0 14 12 26 19 19 2 -3 -1 -11 -7 -17z
m1898 12 c0 -5 -5 -10 -11 -10 -5 0 -7 5 -4 10 3 6 8 10 11 10 2 0 4 -4 4 -10z
m100 -84 c0 -3 -4 -8 -10 -11 -5 -3 -10 -1 -10 4 0 6 5 11 10 11 6 0 10 -2 10
-4z m-2253 -178 c-3 -8 -6 -5 -6 6 -1 11 2 17 5 13 3 -3 4 -12 1 -19z m2342
-29 c-16 -10 -23 -4 -14 10 3 6 11 8 17 5 6 -4 5 -9 -3 -15z m-154 -9 c3 -5 1
-10 -4 -10 -6 0 -11 5 -11 10 0 6 2 10 4 10 3 0 8 -4 11 -10z m-2360 -60 c3
-5 2 -10 -4 -10 -5 0 -13 5 -16 10 -3 6 -2 10 4 10 5 0 13 -4 16 -10z m169
-65 c-4 -8 -11 -12 -16 -9 -6 4 -5 10 3 15 19 12 19 11 13 -6z m2556 -99 c0
-2 -7 -9 -15 -16 -13 -11 -14 -10 -9 4 5 14 24 23 24 12z m-2862 -31 c-3 -3
-9 2 -12 12 -6 14 -5 15 5 6 7 -7 10 -15 7 -18z m-18 -9 c0 -2 -7 -6 -15 -10
-8 -3 -15 -1 -15 4 0 6 7 10 15 10 8 0 15 -2 15 -4z m3110 0 c0 -3 -4 -8 -10
-11 -5 -3 -10 -1 -10 4 0 6 5 11 10 11 6 0 10 -2 10 -4z m-3285 -77 c11 -16 1
-19 -13 -3 -7 8 -8 14 -3 14 5 0 13 -5 16 -11z m3380 -119 c3 -5 1 -10 -4 -10
-6 0 -11 5 -11 10 0 6 2 10 4 10 3 0 8 -4 11 -10z m-1307 -315 c-1 -113 -4
-205 -8 -205 -3 0 -7 37 -8 82 -1 45 -6 86 -11 91 -5 5 -6 -2 -4 -17 3 -14 1
-26 -3 -26 -5 0 -9 -16 -9 -35 0 -19 3 -35 8 -35 4 0 7 -18 7 -40 0 -22 5 -40
11 -40 5 0 7 -4 4 -10 -3 -5 -1 -10 4 -10 6 0 11 -4 11 -10 0 -14 -27 -12 -33
3 -4 8 -6 7 -6 -3 0 -8 6 -24 14 -34 20 -26 19 -47 -1 -39 -13 5 -13 7 -2 14
9 6 9 9 1 9 -18 0 -27 -21 -13 -30 8 -5 7 -9 -4 -13 -22 -9 -20 -24 5 -30 12
-3 18 -10 14 -17 -3 -6 -1 -9 6 -8 6 2 14 -3 16 -9 3 -7 -2 -13 -11 -13 -19 0
-21 -16 -3 -23 9 -3 9 -8 -2 -18 -12 -12 -13 -12 -6 1 8 13 7 13 -8 1 -23 -18
-22 -42 1 -34 15 6 15 5 3 -10 -7 -9 -17 -14 -22 -11 -5 3 -9 1 -9 -5 0 -5 9
-9 19 -8 11 0 17 5 15 9 -3 4 2 8 11 8 10 0 15 -5 12 -12 -19 -48 -20 -51 -9
-44 9 5 9 1 2 -18 -6 -17 -6 -26 3 -29 9 -3 9 -8 -2 -20 -7 -9 -18 -14 -24
-10 -6 3 -7 1 -3 -6 4 -6 13 -8 19 -4 8 4 7 1 -1 -9 -9 -11 -9 -18 -3 -23 6
-3 10 -42 9 -91 -1 -47 -4 -80 -8 -74 -5 8 -10 7 -19 -3 -9 -11 -8 -17 4 -27
19 -16 19 -30 0 -30 -9 0 -12 -6 -9 -15 4 -9 0 -15 -7 -15 -11 0 -11 -3 1 -10
9 -6 10 -10 3 -10 -16 0 -8 -60 9 -71 11 -7 11 -9 0 -9 -7 0 -10 -5 -7 -10 4
-6 2 -16 -3 -23 -12 -15 -21 -78 -11 -71 4 2 10 0 14 -6 6 -9 -8 -15 -29 -11
-6 1 -6 -3 0 -11 12 -17 11 -38 -5 -67 -8 -14 -9 -21 -2 -17 13 8 11 -60 -2
-81 -5 -7 2 -18 17 -28 13 -9 26 -24 29 -35 4 -16 1 -17 -19 -9 -22 8 -24 7
-14 -10 15 -28 12 -41 -7 -42 -11 0 -13 -3 -5 -6 6 -2 12 -11 12 -19 0 -16 16
-19 25 -4 3 6 12 10 18 10 8 0 8 -3 -1 -9 -8 -4 -13 -11 -13 -15 3 -19 0 -27
-7 -22 -4 2 -14 1 -22 -5 -12 -7 -11 -9 5 -9 15 0 17 -2 6 -9 -8 -5 -11 -16
-7 -28 4 -12 0 -25 -9 -33 -12 -10 -13 -15 -3 -28 12 -13 10 -13 -17 0 -27 14
-30 14 -42 -1 -10 -14 -11 -13 -6 7 7 28 -10 29 -60 2 -20 -11 -37 -18 -37
-15 0 12 6 20 12 18 4 -2 5 4 2 12 -5 12 -9 11 -26 -5 -19 -18 -22 -18 -46 -2
-25 16 -26 16 -18 -3 5 -15 4 -17 -5 -8 -6 6 -18 9 -26 6 -8 -3 -18 0 -23 6
-4 8 -9 3 -13 -16 -5 -23 -11 -28 -36 -29 -21 -1 -28 2 -24 10 15 24 10 32
-18 28 -17 -3 -29 0 -29 7 0 6 -9 11 -20 11 -11 0 -20 -4 -20 -9 0 -5 -7 -11
-14 -14 -10 -4 -13 -1 -9 9 3 9 -1 14 -12 14 -9 0 -14 -4 -10 -9 3 -5 1 -12
-5 -16 -5 -3 -10 1 -10 9 0 9 -8 16 -17 16 -15 0 -16 2 -3 10 9 6 10 10 3 10
-6 0 -15 -5 -18 -11 -4 -5 -14 -9 -23 -7 -10 2 -23 -3 -30 -12 -8 -8 -11 -10
-7 -3 3 7 -4 17 -15 23 -13 7 -20 7 -20 0 0 -5 -5 -10 -11 -10 -5 0 -7 5 -3
11 4 7 -2 9 -17 7 -18 -2 -23 -9 -21 -24 2 -13 -3 -21 -13 -21 -10 0 -12 4 -6
10 5 5 7 15 4 22 -5 15 32 57 41 47 3 -3 5 8 5 24 -1 17 -3 22 -6 12 -5 -22
-29 -24 -37 -3 -3 9 0 15 9 15 8 0 15 5 15 11 0 5 4 7 10 4 6 -4 7 1 3 11 -5
13 -3 15 8 10 8 -4 6 -1 -3 7 -19 15 -25 33 -9 22 6 -3 9 3 8 14 -1 21 -37 37
-38 18 0 -7 -4 -3 -9 8 -13 29 -12 35 5 35 8 0 15 9 15 20 0 20 11 26 23 13 4
-3 2 -12 -4 -20 -6 -7 -9 -13 -6 -13 3 0 15 14 27 30 l22 31 -24 -6 c-14 -4
-31 0 -43 10 -19 14 -19 15 -1 8 13 -4 17 -3 12 5 -5 9 0 9 21 2 23 -8 25 -8
12 2 -10 9 -14 25 -12 48 3 30 1 36 -15 36 -13 0 -18 -5 -14 -15 3 -9 0 -12
-9 -9 -8 2 -15 18 -17 35 -3 32 15 45 65 46 12 1 19 5 17 9 -3 5 -11 8 -17 7
-26 -3 -37 2 -37 16 0 18 -16 20 -23 3 -3 -7 -6 -3 -6 10 -1 18 4 22 22 20 12
-2 29 -8 37 -12 10 -6 8 -2 -3 12 -11 11 -16 26 -12 31 3 6 1 11 -4 11 -6 0
-11 -4 -11 -10 0 -5 -7 -7 -15 -3 -20 7 -13 29 7 25 9 -1 18 7 21 18 3 11 1
20 -4 20 -5 0 -9 5 -9 11 0 6 7 9 15 6 8 -4 17 -2 20 4 4 5 3 9 -2 8 -23 -4
-41 3 -47 17 -3 8 -2 12 4 9 6 -3 10 -2 10 3 0 6 -7 12 -15 16 -16 6 -21 36
-5 36 5 0 15 -10 21 -22 8 -15 14 -19 17 -10 2 7 -4 19 -14 27 -16 11 -17 15
-4 31 14 18 14 18 -6 1 -20 -17 -21 -17 -21 50 -1 38 3 73 8 79 5 6 2 21 -6
37 -12 23 -12 27 1 27 8 0 14 5 14 10 0 6 -4 10 -10 10 -5 0 -10 9 -10 21 0
11 4 18 9 14 6 -3 6 7 1 26 -12 40 -10 49 15 71 20 17 20 17 -5 18 -23 2 -21
3 19 16 9 3 6 10 -10 24 -21 17 -21 19 -6 20 15 0 16 3 5 23 -7 12 -11 25 -10
30 1 4 -4 7 -10 7 -7 1 1 7 17 16 24 11 25 13 7 10 -22 -4 -22 -3 -9 12 18 21
18 52 0 45 -16 -6 -17 -23 -1 -23 6 0 8 -3 5 -6 -4 -4 -13 -1 -21 5 -16 14
-10 45 7 34 6 -4 7 -1 2 7 -6 10 -4 12 8 7 12 -5 17 -1 17 12 0 12 -10 21 -25
25 -15 4 -25 13 -25 24 1 16 2 15 15 -2 15 -20 40 -12 31 10 -3 8 0 14 7 15 7
0 2 4 -10 9 -15 6 -20 15 -16 29 3 13 1 21 -6 21 -7 0 -10 -4 -6 -9 3 -5 1
-12 -5 -16 -6 -4 -9 4 -8 19 2 23 14 31 41 27 12 -2 8 6 -10 20 -15 12 -16 12
-8 -1 6 -12 5 -13 -5 -3 -12 11 -11 15 6 27 19 14 19 14 -1 13 -19 -2 -20 5
-23 120 l-3 122 103 3 c57 2 239 4 406 6 l302 2 -2 -205z m-788 -250 c0 -8 -4
-15 -10 -15 -5 0 -10 7 -10 15 0 8 5 15 10 15 6 0 10 -7 10 -15z m788 -123 c6
-18 -15 -14 -22 4 -4 10 -1 14 6 12 6 -2 14 -10 16 -16z m-8 -623 c0 -3 -9 -9
-19 -12 -13 -3 -18 0 -15 7 5 13 34 18 34 5z m0 -141 c0 -6 -6 -5 -15 2 -8 7
-15 14 -15 16 0 2 7 1 15 -2 8 -4 15 -11 15 -16z m-765 -8 c3 -5 1 -10 -4 -10
-6 0 -11 5 -11 10 0 6 2 10 4 10 3 0 8 -4 11 -10z m745 -40 c-8 -5 -17 -7 -19
-4 -3 3 1 9 9 14 8 5 17 7 19 4 3 -3 -1 -9 -9 -14z m-723 -70 c-1 -12 -8 -20
-19 -20 -16 0 -17 3 -8 20 6 11 15 20 20 20 5 0 8 -9 7 -20z m743 -85 c0 -8
-4 -15 -9 -15 -13 0 -22 16 -14 24 11 11 23 6 23 -9z m-40 -15 c0 -5 -4 -10
-10 -10 -5 0 -10 5 -10 10 0 6 5 10 10 10 6 0 10 -4 10 -10z m-733 -142 c-3
-8 -6 -5 -6 6 -1 11 2 17 5 13 3 -3 4 -12 1 -19z m176 -162 c-5 -7 -9 -4 -11
7 -4 18 -5 17 -18 -2 -9 -12 -19 -21 -25 -21 -5 0 1 11 13 25 16 19 25 22 35
14 7 -6 10 -16 6 -23z m447 13 c0 -10 -27 -19 -34 -12 -11 12 -6 19 14 19 11
0 20 -3 20 -7z m-350 -19 c0 -5 -4 -10 -10 -10 -5 0 -10 5 -10 10 0 6 5 10 10
10 6 0 10 -4 10 -10z m160 6 c0 -3 -4 -8 -10 -11 -5 -3 -10 -1 -10 4 0 6 5 11
10 11 6 0 10 -2 10 -4z m45 -6 c3 -5 -3 -10 -15 -10 -12 0 -18 5 -15 10 3 6
10 10 15 10 5 0 12 -4 15 -10z m-468 -6 c-3 -3 -12 -4 -19 -1 -8 3 -5 6 6 6
11 1 17 -2 13 -5z m526 -1 c-7 -2 -19 -2 -25 0 -7 3 -2 5 12 5 14 0 19 -2 13
-5z"/>
<path d="M1135 2520 c-4 -6 6 -206 21 -446 21 -344 25 -439 15 -457 -7 -14
-11 -56 -9 -112 l3 -90 344 -3 c223 -1 348 1 356 8 14 11 9 187 -5 205 -5 6 4
206 20 445 18 290 24 439 17 448 -12 16 -752 18 -762 2z m604 -98 l53 -4 -6
-102 c-12 -183 -36 -635 -36 -668 0 -17 -18 -18 -235 -18 l-235 0 0 78 c0 42
-4 140 -9 217 -6 77 -13 220 -17 317 l-7 177 74 4 c97 5 349 4 418 -1z m101
-862 c0 -32 -20 -47 -57 -45 -12 1 -21 -2 -20 -8 2 -11 -82 -16 -89 -5 -2 3
-13 4 -24 1 -11 -3 -17 -10 -13 -17 4 -6 -1 -5 -10 3 -16 12 -22 8 -18 -12 1
-5 -3 -5 -9 -2 -6 4 -9 13 -6 21 4 10 0 11 -17 5 -27 -10 -49 -3 -40 12 5 9 3
9 -8 1 -15 -12 -22 -13 -82 -17 -21 -2 -42 -9 -47 -17 -7 -11 -10 -12 -10 -2
0 7 -4 10 -10 7 -5 -3 -10 1 -10 10 0 9 -5 13 -10 10 -6 -4 -8 -11 -5 -16 4
-5 1 -9 -5 -9 -6 0 -8 -6 -4 -12 4 -7 -3 -3 -14 9 -13 13 -30 20 -43 18 -18
-4 -20 -1 -16 18 6 20 5 21 -7 4 -13 -16 -15 -16 -30 -2 -9 9 -20 13 -26 10
-6 -4 -10 8 -10 29 l0 36 320 0 320 0 0 -30z m-580 -81 c0 -5 -4 -8 -9 -5 -5
4 -11 0 -14 -6 -2 -7 -8 -10 -12 -6 -4 4 -4 11 0 17 8 14 35 14 35 0z"/>
<path d="M3104 2517 c-2 -7 5 -154 16 -327 33 -511 34 -548 21 -573 -7 -14
-11 -56 -9 -112 l3 -90 344 -3 c245 -2 348 1 357 9 19 16 19 176 0 198 -11 14
-9 81 14 451 19 300 25 439 18 448 -15 18 -756 18 -764 -1z m655 -97 c6 0 -13
-381 -35 -707 l-6 -83 -228 0 -229 0 -5 53 c-5 50 -19 308 -32 599 l-7 137 69
4 c50 3 434 1 473 -3z m49 -862 c-3 -29 -7 -33 -35 -36 -21 -2 -33 -9 -33 -18
0 -8 -5 -14 -11 -14 -5 0 -7 5 -4 10 8 13 -1 13 -25 0 -12 -6 -21 -7 -25 0 -7
11 -36 1 -51 -19 -12 -16 -44 -9 -44 10 0 8 6 7 18 -2 15 -12 16 -12 4 2 -7
10 -21 14 -37 11 -24 -4 -34 -25 -17 -35 4 -2 2 -2 -5 -1 -6 2 -14 -2 -17 -9
-3 -7 -3 -2 0 11 3 12 1 22 -5 22 -6 0 -11 -4 -11 -10 0 -5 -9 -10 -19 -10
-10 0 -22 -7 -25 -16 -3 -8 -10 -12 -16 -9 -16 10 -12 23 10 30 11 3 20 11 20
17 0 6 -7 5 -17 -3 -14 -12 -16 -12 -11 2 4 9 1 16 -8 16 -7 0 -11 -3 -10 -6
2 -3 -29 -6 -70 -6 -55 0 -73 3 -70 12 3 7 0 15 -6 19 -7 4 -8 3 -4 -4 8 -14
9 -13 -64 -17 -36 -2 -48 0 -35 5 17 7 17 9 3 9 -14 1 -18 10 -18 36 l0 35
321 0 320 0 -3 -32z m-135 -88 c9 -11 13 -20 7 -20 -5 0 -14 9 -20 20 -6 11
-9 20 -8 20 2 0 11 -9 21 -20z"/>
<path d="M3626 1522 c-3 -5 1 -9 9 -9 8 0 12 4 9 9 -3 4 -7 8 -9 8 -2 0 -6 -4
-9 -8z"/>
<path d="M2215 2449 c-14 -21 -23 -79 -14 -85 5 -3 9 -16 9 -30 0 -18 -5 -24
-22 -24 -19 0 -20 2 -8 11 12 9 12 10 -3 5 -10 -3 -22 -6 -25 -6 -4 0 -1 -4 6
-8 7 -5 13 -32 14 -66 1 -38 6 -60 15 -63 10 -4 11 -9 3 -18 -7 -9 -7 -21 0
-39 13 -36 13 -41 -5 -26 -16 14 -20 3 -6 -19 5 -7 14 -10 20 -7 6 4 11 3 11
-3 0 -17 -25 -18 -38 -2 -12 14 -13 14 -7 -4 4 -11 8 -25 8 -32 0 -7 6 -14 14
-17 7 -3 13 -14 13 -25 0 -11 6 -22 13 -24 7 -4 6 -6 -4 -6 -9 -1 -19 -8 -23
-16 -3 -9 -16 -20 -28 -25 -20 -9 -19 -9 9 -6 17 2 36 7 42 10 19 12 16 -39
-3 -56 -16 -15 -16 -18 -3 -18 8 0 17 -5 19 -12 3 -7 7 -5 11 6 5 11 3 15 -5
10 -7 -4 -8 -3 -4 5 5 7 16 9 29 5 24 -8 132 -6 160 2 10 3 17 15 17 30 0 14
4 23 8 20 5 -3 9 1 9 9 0 8 -4 12 -9 9 -4 -3 -5 30 -2 73 5 66 13 275 13 323
0 8 0 36 0 62 1 35 -3 50 -17 56 -26 15 -209 15 -217 1z m183 -70 c-3 -8 -7
-3 -11 10 -4 17 -3 21 5 13 5 -5 8 -16 6 -23z m-32 -6 c-10 -10 -19 5 -10 18
6 11 8 11 12 0 2 -7 1 -15 -2 -18z m-146 -337 c0 -3 -4 -8 -10 -11 -5 -3 -10
-1 -10 4 0 6 5 11 10 11 6 0 10 -2 10 -4z m90 -16 c0 -5 -4 -10 -10 -10 -5 0
-10 5 -10 10 0 6 5 10 10 10 6 0 10 -4 10 -10z"/>
<path d="M2546 2439 c-8 -12 -13 -26 -10 -31 3 -5 8 -79 10 -166 3 -86 5 -175
6 -198 1 -22 -1 -45 -5 -50 -3 -6 -2 -16 4 -24 5 -8 9 -34 9 -57 0 -32 4 -43
15 -43 8 0 15 -5 15 -11 0 -5 5 -7 11 -3 6 3 15 0 20 -7 6 -10 9 -11 9 -1 0 8
17 12 53 12 28 0 59 4 67 10 9 5 19 5 27 -1 9 -8 10 -4 3 21 -8 29 -7 30 7 18
15 -12 15 -11 4 10 -6 12 -8 22 -4 22 4 0 1 5 -7 10 -10 7 -11 10 -2 10 7 0
15 -7 18 -15 4 -8 10 -15 15 -15 10 0 -10 41 -26 52 -5 4 -2 10 8 14 9 3 15
10 12 14 -3 4 5 21 17 36 15 19 16 24 5 15 -11 -9 -17 -10 -17 -2 0 20 -2 26
-16 45 -11 17 -11 21 4 32 15 12 15 15 2 24 -13 8 -8 14 11 12 3 -1 6 6 6 14
0 8 -3 14 -7 14 -4 0 -5 11 -2 25 3 17 0 25 -10 25 -11 0 -14 18 -14 86 1 126
6 120 -117 123 -98 1 -107 0 -121 -20z"/>
<path d="M2795 2360 c-3 -5 -1 -10 4 -10 6 0 11 5 11 10 0 6 -2 10 -4 10 -3 0
-8 -4 -11 -10z"/>
<path d="M2820 2359 c0 -5 5 -7 10 -4 6 3 10 8 10 11 0 2 -4 4 -10 4 -5 0 -10
-5 -10 -11z"/>
<path d="M2512 2304 c-7 -8 -8 -14 -3 -14 10 0 25 19 20 25 -2 1 -10 -3 -17
-11z"/>
<path d="M2796 2282 c-3 -6 -1 -14 5 -17 15 -10 25 3 12 16 -7 7 -13 7 -17 1z"/>
<path d="M2491 2214 c0 -11 3 -14 6 -6 3 7 2 16 -1 19 -3 4 -6 -2 -5 -13z"/>
<path d="M2477 2146 c-3 -8 -2 -18 3 -21 13 -8 20 9 11 24 -6 10 -10 9 -14 -3z"/>
<path d="M2852 2065 c0 -16 2 -22 5 -12 2 9 2 23 0 30 -3 6 -5 -1 -5 -18z"/>
<path d="M2177 1990 c-3 -11 -1 -23 4 -26 5 -3 9 6 9 20 0 31 -6 34 -13 6z"/>
<path d="M2180 1890 c-6 -12 -9 -26 -6 -33 2 -7 5 -4 5 6 1 9 8 17 16 17 17 0
20 16 6 25 -6 3 -15 -4 -21 -15z"/>
<path d="M2485 1840 c3 -5 11 -10 16 -10 6 0 7 5 4 10 -3 6 -11 10 -16 10 -6
0 -7 -4 -4 -10z"/>
<path d="M2730 1840 c-9 -6 -10 -10 -3 -10 6 0 15 5 18 10 8 12 4 12 -15 0z"/>
<path d="M2751 1775 c-11 -17 -21 -39 -21 -49 0 -17 48 -84 57 -79 29 19 62
31 68 25 5 -4 5 -2 1 5 -3 6 0 18 7 25 10 9 12 21 6 41 -11 39 -12 41 -28 44
-8 1 -17 5 -20 10 -14 19 -49 8 -70 -22z m73 -21 c22 -21 3 -56 -27 -52 -37 5
-33 67 5 68 4 0 14 -7 22 -16z"/>
<path d="M2805 1631 c-3 -5 -2 -12 3 -15 5 -3 9 1 9 9 0 17 -3 19 -12 6z"/>
<path d="M2244 1612 c-20 -13 -23 -41 -30 -269 -4 -148 -11 -231 -18 -235 -8
-6 -8 -8 0 -8 6 0 11 -14 12 -31 0 -18 5 -36 10 -41 14 -14 81 -16 86 -3 3 5
5 2 5 -9 1 -14 4 -16 14 -7 8 6 16 9 19 6 2 -3 26 -1 52 4 40 7 46 6 42 -6 -3
-8 -6 -17 -6 -19 0 -2 -7 -4 -15 -4 -8 0 -15 5 -15 10 0 6 -8 10 -17 9 -11 0
-13 -3 -5 -6 6 -2 10 -8 8 -12 -3 -4 6 -8 19 -9 15 -1 29 7 39 24 10 13 22 22
28 18 7 -4 8 -3 4 5 -4 6 -12 9 -17 6 -11 -8 -10 -31 -16 195 -7 277 -14 374
-27 382 -6 4 -45 8 -86 8 -41 0 -80 -4 -86 -8z"/>
<path d="M2578 1614 c-14 -4 -18 -16 -18 -50 0 -28 -4 -44 -12 -44 -10 0 -10
-2 -1 -8 7 -4 10 -17 6 -30 -3 -12 -9 -20 -12 -17 -4 2 -8 -2 -8 -10 0 -8 4
-12 9 -9 13 8 9 -51 -4 -65 -10 -11 -10 -12 -1 -7 10 6 12 -26 9 -146 -3 -84
-5 -158 -6 -163 -5 -24 1 -35 19 -35 11 0 27 -10 36 -22 16 -22 16 -22 11 -2
-6 18 -2 20 36 18 24 -2 51 -3 61 -3 9 -1 17 -8 17 -17 0 -8 4 -13 9 -10 5 4
12 0 15 -6 4 -7 4 -3 2 9 -2 14 0 20 9 17 7 -3 15 2 19 11 3 9 9 14 13 12 5
-3 8 8 8 23 0 15 -3 26 -7 24 -3 -2 -7 36 -7 86 -1 61 3 90 10 90 8 0 8 4 -1
15 -6 8 -9 19 -5 25 3 5 3 10 -2 10 -9 0 -9 57 0 67 4 3 3 11 -2 17 -5 6 -11
55 -13 108 -2 53 -7 101 -12 105 -9 9 -152 14 -178 7z"/>
<path d="M2484 1542 c3 -5 0 -13 -6 -15 -8 -3 -6 -6 5 -6 19 -1 23 14 5 25 -6
4 -8 3 -4 -4z"/>
<path d="M2823 1435 c0 -8 4 -12 9 -9 5 3 6 10 3 15 -9 13 -12 11 -12 -6z"/>
<path d="M2146 1296 c3 -8 13 -17 22 -21 13 -5 13 -2 -3 15 -21 24 -26 25 -19
6z"/>
<path d="M2456 1142 c-3 -5 1 -9 9 -9 8 0 12 4 9 9 -3 4 -7 8 -9 8 -2 0 -6 -4
-9 -8z"/>
<path d="M2505 1018 c-4 -10 -15 -13 -30 -10 -19 3 -23 0 -21 -14 2 -11 -2
-23 -8 -27 -6 -5 -1 -5 12 -2 13 4 29 1 38 -6 8 -7 14 -8 13 -3 -1 5 -1 15 0
23 1 12 4 11 14 -3 12 -16 13 -15 12 9 -2 33 -22 55 -30 33z"/>
<path d="M2194 1006 c1 -8 5 -18 8 -22 4 -3 5 1 4 10 -1 8 -5 18 -8 22 -4 3
-5 -1 -4 -10z"/>
<path d="M2638 999 c13 -5 21 -13 17 -19 -4 -6 1 -7 11 -3 11 4 13 8 6 11 -7
2 -10 7 -8 11 3 4 -7 7 -22 8 -26 2 -26 2 -4 -8z"/>
<path d="M2260 989 c0 -5 5 -7 10 -4 6 3 10 8 10 11 0 2 -4 4 -10 4 -5 0 -10
-5 -10 -11z"/>
<path d="M2372 954 c-7 -8 -8 -14 -3 -14 10 0 25 19 20 25 -2 1 -10 -3 -17
-11z"/>
<path d="M2730 950 c-9 -6 -10 -10 -3 -10 6 0 15 5 18 10 8 12 4 12 -15 0z"/>
<path d="M2330 896 c0 -2 8 -10 18 -17 15 -13 16 -12 3 4 -13 16 -21 21 -21
13z"/>
<path d="M2803 882 c-23 -3 -30 -16 -15 -26 8 -4 49 22 41 27 -2 1 -14 1 -26
-1z"/>
<path d="M2480 841 c0 -6 4 -13 10 -16 6 -3 7 1 4 9 -7 18 -14 21 -14 7z"/>
</g>
</svg>
