<?xml version="1.0" standalone="no"?>
<!DOCTYPE svg PUBLIC "-//W3C//DTD SVG 20010904//EN"
 "http://www.w3.org/TR/2001/REC-SVG-20010904/DTD/svg10.dtd">
<svg version="1.0" xmlns="http://www.w3.org/2000/svg"
 width="225.000000pt" height="225.000000pt" viewBox="0 0 225.000000 225.000000"
 preserveAspectRatio="xMidYMid meet">

<g transform="translate(0.000000,225.000000) scale(0.100000,-0.100000)"
fill="#000000" stroke="none">
<path d="M705 1961 c-76 -31 -134 -212 -121 -376 l6 -82 -50 -62 c-64 -79 -76
-104 -96 -188 -18 -78 -14 -132 18 -241 21 -73 21 -74 3 -145 -25 -96 -23
-231 4 -317 26 -81 26 -94 0 -219 l-21 -102 28 -22 c30 -24 65 -46 75 -47 3 0
9 35 12 78 4 42 13 102 22 132 29 102 29 130 1 187 -54 105 -54 205 -1 321 29
62 31 89 9 117 -22 30 -54 141 -54 191 0 65 35 147 80 188 52 47 89 65 167 81
60 13 72 19 121 70 76 78 139 109 222 109 83 0 128 -23 203 -104 52 -56 64
-63 130 -81 223 -62 300 -216 207 -417 l-33 -72 33 -82 c30 -76 32 -89 28
-173 -3 -71 -10 -102 -31 -149 -32 -70 -33 -79 -6 -158 11 -34 23 -102 26
-150 3 -48 8 -88 10 -88 12 0 81 41 92 54 16 19 9 80 -20 182 l-21 71 27 74
c38 101 40 221 6 330 l-23 77 23 58 c18 48 23 79 23 164 1 99 -1 109 -31 170
-18 36 -50 87 -72 113 l-40 48 6 87 c9 147 -47 336 -108 368 -94 48 -184 -29
-220 -190 -7 -32 -19 -60 -26 -63 -8 -3 -43 4 -79 16 -81 27 -137 27 -218 0
-36 -12 -71 -19 -79 -16 -8 3 -19 32 -26 64 -6 32 -25 82 -42 111 -44 77 -104
107 -164 83z m830 -141 c22 -42 40 -236 25 -256 -15 -17 -92 -19 -122 -3 -19
10 -20 17 -14 82 14 142 38 207 76 207 12 0 26 -12 35 -30z m-743 -20 c20 -40
44 -218 31 -230 -4 -5 -34 -11 -65 -15 -55 -7 -58 -6 -69 18 -13 29 3 198 23
242 17 38 58 31 80 -15z"/>
<path d="M1039 1186 c-167 -45 -241 -186 -164 -312 25 -39 44 -56 99 -84 63
-32 77 -35 150 -34 125 1 217 49 261 137 28 56 31 87 13 138 -26 77 -89 129
-185 154 -68 18 -112 18 -174 1z m195 -80 c17 -7 46 -27 63 -45 107 -107 -16
-255 -198 -238 -218 19 -255 236 -50 294 52 14 136 9 185 -11z"/>
<path d="M1080 1021 c-15 -28 -12 -46 8 -64 37 -33 92 -16 92 28 0 48 -78 76
-100 36z"/>
<path d="M1430 1170 c-26 -26 -25 -60 1 -94 25 -32 70 -35 99 -6 23 23 25 42
8 73 -26 49 -74 61 -108 27z"/>
<path d="M729 1151 c-36 -36 -36 -45 -3 -78 21 -21 32 -24 61 -20 44 8 63 23
63 54 0 30 -42 73 -70 73 -12 0 -35 -13 -51 -29z"/>
</g>
</svg>
