<?xml version="1.0" standalone="no"?>
<!DOCTYPE svg PUBLIC "-//W3C//DTD SVG 20010904//EN"
 "http://www.w3.org/TR/2001/REC-SVG-20010904/DTD/svg10.dtd">
<svg version="1.0" xmlns="http://www.w3.org/2000/svg"
 width="690.000000pt" height="362.000000pt" viewBox="0 0 690.000000 362.000000"
 preserveAspectRatio="xMidYMid meet">

<g transform="translate(0.000000,362.000000) scale(0.100000,-0.100000)"
fill="#000000" stroke="none">
<path d="M2655 2993 c-202 -43 -363 -211 -395 -413 -13 -88 -13 -1452 0 -1540
23 -143 127 -294 248 -358 131 -70 94 -67 937 -67 611 0 771 3 815 14 139 34
267 136 330 260 58 117 60 140 60 919 0 436 -4 732 -10 772 -33 206 -198 376
-406 415 -113 22 -1476 20 -1579 -2z m449 -791 c77 -36 164 -114 197 -177 l24
-45 473 0 c527 0 517 1 569 -67 35 -45 43 -125 18 -177 -22 -46 -72 -85 -118
-93 -31 -5 -42 0 -87 38 l-51 43 -44 -44 -45 -44 -32 30 c-68 62 -64 62 -113
14 l-44 -43 -46 42 c-51 47 -47 47 -113 -13 l-32 -30 -43 42 c-23 23 -47 42
-52 42 -6 -1 -28 -19 -50 -40 -39 -39 -42 -40 -112 -40 l-72 0 -34 -52 c-124
-194 -361 -262 -560 -162 -265 133 -319 487 -106 694 90 87 186 122 321 116
71 -3 98 -9 152 -34z"/>
<path d="M2693 1914 c-69 -35 -81 -131 -23 -189 26 -25 38 -30 80 -30 43 0 54
5 82 33 28 28 33 39 33 82 0 42 -5 54 -31 81 -38 38 -94 47 -141 23z"/>
</g>
</svg>
