<?xml version="1.0" standalone="no"?>
<!DOCTYPE svg PUBLIC "-//W3C//DTD SVG 20010904//EN"
 "http://www.w3.org/TR/2001/REC-SVG-20010904/DTD/svg10.dtd">
<svg version="1.0" xmlns="http://www.w3.org/2000/svg"
 width="512.000000pt" height="512.000000pt" viewBox="0 0 512.000000 512.000000"
 preserveAspectRatio="xMidYMid meet">

<g transform="translate(0.000000,512.000000) scale(0.100000,-0.100000)"
fill="#000000" stroke="none">
<path d="M2315 4413 c-691 -58 -1323 -308 -1855 -732 -52 -42 -136 -116 -186
-166 -81 -80 -93 -96 -104 -143 -36 -152 84 -302 241 -302 80 0 112 16 212
107 449 410 983 657 1597 739 153 21 498 23 650 5 395 -47 782 -174 1115 -366
200 -116 336 -215 521 -381 97 -87 132 -104 214 -104 146 1 274 171 230 306
-19 57 -53 99 -154 191 -346 311 -753 544 -1206 691 -245 79 -480 127 -745
152 -101 9 -434 11 -530 3z"/>
<path d="M2355 3500 c-384 -39 -734 -153 -1050 -343 -115 -70 -171 -110 -310
-223 -176 -144 -205 -186 -205 -291 0 -73 25 -127 80 -176 55 -50 96 -67 165
-67 77 0 111 17 202 101 484 450 1170 624 1810 459 308 -80 587 -231 828 -450
103 -93 148 -114 230 -108 131 11 227 117 226 249 0 79 -23 119 -120 212 -334
319 -835 555 -1321 622 -141 19 -413 27 -535 15z"/>
<path d="M2315 2574 c-304 -56 -546 -173 -769 -370 -107 -94 -136 -143 -136
-224 0 -135 111 -250 241 -250 77 0 117 19 199 94 134 124 285 206 460 254 83
22 114 25 250 25 134 0 168 -3 252 -26 172 -46 340 -138 468 -258 67 -64 120
-89 185 -89 132 0 245 115 245 250 0 74 -25 124 -96 191 -209 197 -452 326
-739 391 -122 27 -442 34 -560 12z"/>
<path d="M2495 1744 c-211 -33 -379 -179 -439 -383 -23 -78 -21 -213 4 -293
52 -168 212 -318 380 -357 66 -15 187 -13 255 4 165 43 314 188 366 354 23 75
27 213 9 283 -43 163 -190 319 -349 368 -65 21 -173 32 -226 24z"/>
</g>
</svg>
